<svg xmlns="http://www.w3.org/2000/svg" width="20.794" height="27.97" viewBox="0 0 20.794 27.97"><defs><style>.a{fill:#00ac54;}.b,.c{fill:#fff;}.b{opacity:0.5;}</style></defs><path class="a" d="M16.539,27.97H4.256A4.256,4.256,0,0,1,0,23.715V4.256A4.256,4.256,0,0,1,4.256,0H14.924l5.87,5.9V23.715A4.256,4.256,0,0,1,16.539,27.97Z"/><path class="b" d="M56.741,5.9H52.089A1.2,1.2,0,0,1,50.88,4.7V0" transform="translate(-35.947)"/><g transform="translate(-0.802)"><path class="c" d="M18.11,47.217l-1.6-2.617h.754l1.067,1.8.189.358.185-.358,1.131-1.8h.7l-1.67,2.564,1.746,2.764h-.754l-1.2-1.912-.207-.377-.2.377-1.218,1.912H16.36Z" transform="translate(-11.558 -31.493)"/><path class="c" d="M29.89,44.6h.63v4.766h2.157V48.039h.562v1.885H29.89Z" transform="translate(-19.987 -31.493)"/><path class="c" d="M42.313,49.049a2.458,2.458,0,0,0,.517.2,2.191,2.191,0,0,0,1.044.03,1.109,1.109,0,0,0,.377-.162.826.826,0,0,0,.26-.275.788.788,0,0,0,.094-.377.675.675,0,0,0-.207-.513,2.112,2.112,0,0,0-.524-.347c-.207-.1-.434-.2-.679-.3a4.2,4.2,0,0,1-.675-.343,1.931,1.931,0,0,1-.52-.483,1.207,1.207,0,0,1-.2-.728,1.244,1.244,0,0,1,.124-.562,1.263,1.263,0,0,1,.354-.43,1.686,1.686,0,0,1,.554-.268,2.493,2.493,0,0,1,.716-.1,4.686,4.686,0,0,1,.833.068,2.263,2.263,0,0,1,.592.17h0v1.241h-.547v-.826a3.977,3.977,0,0,0-.419-.075,4.029,4.029,0,0,0-.49-.03,1.546,1.546,0,0,0-.452.06,1.158,1.158,0,0,0-.343.162.754.754,0,0,0-.215.241.566.566,0,0,0-.075.29.652.652,0,0,0,.207.494,2.206,2.206,0,0,0,.52.354c.211.106.437.207.679.309a4.118,4.118,0,0,1,.679.354,1.931,1.931,0,0,1,.52.483,1.131,1.131,0,0,1,.215.7,1.41,1.41,0,0,1-.128.615,1.286,1.286,0,0,1-.358.471,1.614,1.614,0,0,1-.569.305,2.538,2.538,0,0,1-.754.106,3.145,3.145,0,0,1-.547-.045,3.669,3.669,0,0,1-.475-.113,3.732,3.732,0,0,1-.377-.143c-.117-.053-.207-.094-.271-.132V48.2h.562Z" transform="translate(-27.387 -31.368)"/></g></svg>