<svg xmlns="http://www.w3.org/2000/svg" width="186" height="38.757" viewBox="0 0 186 38.757"><defs><style>.a{fill:#0069ec;fill-rule:evenodd}</style></defs><path class="a" d="M58.811 5.093H44.5v24.168h4.347l-.032-9.621H58.8c5.086 0 10.272-.835 10.272-6.817v-.945c.01-5.939-5.172-6.785-10.261-6.785zm5.964 7.666c0 2.8-2.488 2.865-5.356 2.865H48.756V9.113h10.2c.675 0 1.383-.036 2.083.032a6.657 6.657 0 0 1 1.887.27 2.367 2.367 0 0 1 1.816 2.506zm5.267-7.666h25.089v4.02h-10.41v20.152h-4.308l.032-20.152h-10.41zm56.241 0h3.469v24.168h-4.29V14.039l-7.645 11.731-2.865-.068-7.9-11.7v15.263h-4.336V5.097h3.554l10.08 15.151zm28.152 0h3.27v24.168h-4.265l-.04-17.415-17.3 17.415h-3.33V5.093h4.34v17.384zm28.366 16.1l3.2 3.039-.1.2a7.365 7.365 0 0 1-1.518 1.891c-2.627 2.26-7.272 2.922-10.609 2.922-8.957 0-14.042-3.611-14.042-12.084 0-8.406 5.086-12.052 14.042-12.052 3.334 0 7.983.643 10.609 2.922a7.874 7.874 0 0 1 1.517 1.857l.1.235-3.2 3-.238-.437c-.1-.2-.167-.416-.267-.572l-.27-.437a1.067 1.067 0 0 0-.338-.355c-1.663-1.827-5.285-2.2-7.908-2.2-6.664 0-9.7 1.891-9.7 8.068s3.032 8.1 9.7 8.1c2.627 0 6.245-.373 7.908-2.161a3.351 3.351 0 0 0 .338-.373 2.134 2.134 0 0 1 .27-.437c.1-.171.167-.419.267-.576zM0 15.685a3.657 3.657 0 0 1 2.914-3.579c4.365-.9 5-1.1 8.135-5.278a4.286 4.286 0 0 1 3.419-1.717 4.379 4.379 0 0 1 1.006.124c4.34 1.066 5.733-.252 6.984-3.28a3.128 3.128 0 1 1 2.882 4.333 2.736 2.736 0 0 1-.416-.036c-3.22-.416-5.065.114-6.344 4.4a4.3 4.3 0 0 1-3.593 3.032c-5.2.643-5.687 1.088-8.622 4.425A3.639 3.639 0 0 1 0 15.685zM.48 3.17a3.17 3.17 0 1 1 3.167 3.171A3.17 3.17 0 0 1 .48 3.17zm28.511 12.515a3.661 3.661 0 0 1-3.65 3.654 3.6 3.6 0 0 1-.515-.039c-3.113-.448-4.745.178-5.925 4.013a4.645 4.645 0 0 1-4.109 3.257c-5.758.427-6.152 1.041-8.907 3.846a3.156 3.156 0 1 1-3.042-5.264c3.817-.977 4.556-1 7.787-5.811a4.62 4.62 0 0 1 4.894-1.941c3.91.91 5.257-.192 6.44-3.113a3.643 3.643 0 0 1 7.027 1.383zM28.5 28.202a3.17 3.17 0 0 1-2.444 3.068c-4.105.981-4.823 1.066-8.125 5.687a4.265 4.265 0 1 1-3.849-6.71c5.651-.53 6.078-1.109 8.967-4.173a3.145 3.145 0 0 1 5.451 2.16z"/></svg>